<?xml version="1.0" encoding="utf-8"?>
<!-- Generator: Adobe Illustrator 19.1.0, SVG Export Plug-In . SVG Version: 6.00 Build 0)  -->
<svg version="1.1" id="Calque_1" xmlns="http://www.w3.org/2000/svg" xmlns:xlink="http://www.w3.org/1999/xlink" x="0px" y="0px"
	 viewBox="-315.8 472.9 444.7 123.7" style="enable-background:new -315.8 472.9 444.7 123.7;" xml:space="preserve">
<style type="text/css">
	.st0{enable-background:new    ;}
	.st1{fill:#43CEFF;}
	.st2{font-family:'Helvetica';}
	.st3{font-size:90px;}
	.st4{fill:#3DADFF;}
	.st5{letter-spacing:-8;}
	.st6{fill:#FFFFFF;}
	.st7{letter-spacing:1;}
</style>
<text transform="matrix(1 0 0 1 -167.081 553.2822)" class="st0"><tspan x="0" y="0" class="st1 st2 st3">i</tspan><tspan x="20" y="0" class="st4 st2 st3 st5"> </tspan><tspan x="36.9" y="0" class="st6 st2 st3 st7">Learn</tspan></text>
<g>
	<g>
		<polygon class="st6" points="-198.6,500.5 -198.6,495.2 -253.6,472.9 -253.6,479.3 -206.5,497.9 -254.6,517.6 -254.6,524 		"/>
		<polyline class="st6" points="-216.1,537.7 -211.1,535.7 -217.8,514.3 -222.8,516.5 		"/>
		<path class="st6" d="M-298.9,537.9c6.2,4.8,12.7,8.6,19.8,11.2c7,2.7,14.3,4.1,21.8,4.1c7.4,0,14.6-1.4,21.5-4.2
			c6.9-2.8,13.4-6.5,19.5-11.1v5.1c-3.4,2.7-6.6,5.2-9.8,7.3c-3.2,2.1-6.4,3.9-9.7,5.3c-3.3,1.4-6.7,2.5-10.3,3.3
			c-3.6,0.8-7.5,1.1-11.7,1.1c-4.1,0-7.9-0.4-11.5-1.1c-3.6-0.8-7-1.9-10.3-3.3c-3.3-1.4-6.6-3.2-9.7-5.4c-3.2-2.1-6.4-4.5-9.5-7.2
			v-5.1H-298.9z"/>
	</g>
	<path class="st6" d="M-254.6,529v24.3h-6V529H-254.6z"/>
	<g>
		<g>
			<polygon class="st6" points="-287,513.1 -260.6,524 -260.6,517.6 -284.4,508 			"/>
			<polygon class="st6" points="-315.8,495.5 -315.8,500.8 -297.9,508.4 -295.2,503.4 -307.8,498.2 -260.6,479.3 -260.6,472.9 			
				"/>
		</g>
		<g>
			<path class="st1" d="M-290.6,499.7h7.4l-22.8,43h-7.4L-290.6,499.7z"/>
		</g>
	</g>
</g>
</svg>
