<?xml version="1.0" encoding="utf-8"?>
<!-- Generator: Adobe Illustrator 19.1.0, SVG Export Plug-In . SVG Version: 6.00 Build 0)  -->
<svg version="1.1" id="Calque_1" xmlns="http://www.w3.org/2000/svg" xmlns:xlink="http://www.w3.org/1999/xlink" x="0px" y="0px"
	 viewBox="-316 467 390.4 92" style="enable-background:new -316 467 390.4 92;" xml:space="preserve">
<style type="text/css">
	.st0{fill:none;}
	.st1{fill:#999999;}
	.st2{font-family:'Montserrat-Light';}
	.st3{font-size:90px;}
	.st4{fill:#CCCCCC;}
</style>
<rect x="-167.4" y="486.5" class="st0" width="241.8" height="70.9"/>
<text transform="matrix(0.9 0 0 1 -167.081 553.2822)" class="st1 st2 st3">i</text>
<text transform="matrix(0.9 0 0 1 -145.4814 553.2822)" class="st4 st2 st3">Learn</text>
<g>
	<g>
		<path class="st4" d="M-197.7,494.4l-56,23.5v-6.4l48.1-19.7l-47.1-18.6v-6.4l55,22.3V494.4z"/>
		<path class="st4" d="M-213.7,507.1l3,22.9l-5,2l-3-22.9L-213.7,507.1z"/>
		<path class="st4" d="M-298.5,532.2c6.2,4.8,12.7,8.6,19.8,11.2c7,2.7,14.3,4.1,21.8,4.1c7.4,0,14.6-1.4,21.5-4.2
			c6.9-2.8,13.4-6.5,19.5-11.1v5.1c-3.4,2.7-6.6,5.2-9.8,7.3c-3.2,2.1-6.4,3.9-9.7,5.3c-3.3,1.4-6.7,2.5-10.3,3.3
			c-3.6,0.8-7.5,1.1-11.7,1.1c-4.1,0-7.9-0.4-11.5-1.1c-3.6-0.8-7-1.9-10.3-3.3c-3.3-1.4-6.6-3.2-9.7-5.4c-3.2-2.1-6.4-4.5-9.5-7.2
			v-5.1H-298.5z"/>
	</g>
	<path class="st4" d="M-254.2,523.3v24.3h-6v-24.3H-254.2z"/>
	<g>
		<polygon class="st4" points="-287.2,506.7 -261,517.9 -261,511.5 -284.6,501.6 		"/>
		<polygon class="st4" points="-316,489.1 -316,494.4 -298.1,502 -295.4,497 -308,491.8 -260,473.2 -260,466.8 		"/>
	</g>
	<g>
		<path class="st1" d="M-290.8,493.3h7.4l-22.8,43h-7.4L-290.8,493.3z"/>
	</g>
</g>
</svg>
