<?xml version="1.0" encoding="utf-8"?>
<!-- Generator: Adobe Illustrator 19.1.0, SVG Export Plug-In . SVG Version: 6.00 Build 0)  -->
<svg version="1.1" id="Calque_1" xmlns="http://www.w3.org/2000/svg" xmlns:xlink="http://www.w3.org/1999/xlink" x="0px" y="0px"
	 viewBox="-315.8 472.9 416.4 87.2" style="enable-background:new -315.8 472.9 416.4 87.2;" xml:space="preserve">
<style type="text/css">
	.st0{enable-background:new    ;}
	.st1{fill:#43CEFF;}
	.st2{fill:#FFFFFF;}
</style>
<g class="st0">
	<path class="st1" d="M-153.1,499.8v-8h5.9v8H-153.1z M-152.8,548.2l0-38.2h5.4l0,38.2H-152.8z"/>
	<path class="st2" d="M-122.9,548.2v-64.8h6.1V543H-82v5.2H-122.9z"/>
	<path class="st2" d="M-68.5,526.1c0,2.5,0.3,4.9,1,7.2c0.7,2.2,1.6,4.2,2.9,5.8c1.3,1.7,2.9,3,4.9,4c2,1,4.3,1.5,6.8,1.5
		c3.5,0,6.6-0.9,9.1-2.8c2.5-1.9,4.2-4.5,5-7.9h6c-0.7,2.2-1.5,4.3-2.6,6.2c-1.1,1.9-2.4,3.5-4,5c-1.6,1.4-3.5,2.5-5.8,3.3
		c-2.2,0.8-4.8,1.2-7.7,1.2c-3.7,0-6.9-0.6-9.6-1.9c-2.7-1.3-4.9-3-6.7-5.2c-1.7-2.2-3-4.8-3.9-7.7c-0.8-3-1.3-6.2-1.3-9.6
		s0.5-6.6,1.5-9.6c1-3,2.4-5.6,4.2-7.9c1.8-2.2,4.1-4,6.7-5.3c2.6-1.3,5.6-1.9,9-1.9c6.4,0,11.5,2.2,15.1,6.6
		c3.7,4.4,5.5,10.8,5.4,19.2H-68.5z M-38.1,521.6c0-2.3-0.3-4.4-0.9-6.4c-0.6-2-1.6-3.7-2.8-5.2c-1.2-1.5-2.8-2.6-4.6-3.5
		c-1.9-0.9-4-1.3-6.4-1.3c-2.4,0-4.5,0.5-6.3,1.4c-1.8,0.9-3.4,2.1-4.7,3.6c-1.3,1.5-2.3,3.2-3.1,5.2c-0.8,2-1.3,4.1-1.5,6.3H-38.1z
		"/>
	<path class="st2" d="M1.4,521c1-0.1,2.2-0.3,3.6-0.5c1.4-0.2,2.6-0.6,3.5-1c0.9-0.4,1.5-1.1,1.7-2.1c0.2-1,0.3-1.9,0.3-2.7
		c0-2.8-0.9-5-2.7-6.8c-1.8-1.8-4.8-2.7-9-2.7c-1.9,0-3.6,0.2-5.1,0.5c-1.6,0.3-2.9,0.9-4.1,1.7c-1.2,0.8-2.1,1.9-2.9,3.2
		c-0.8,1.4-1.2,3-1.5,5.1h-5.5c0.2-2.8,0.8-5.1,1.9-7.1c1.1-1.9,2.5-3.5,4.2-4.8c1.7-1.2,3.7-2.1,5.9-2.7c2.2-0.6,4.6-0.9,7.2-0.9
		c2.3,0,4.5,0.3,6.6,0.8c2.1,0.5,3.9,1.3,5.4,2.4c1.5,1.1,2.7,2.6,3.6,4.5c0.9,1.9,1.3,4.1,1.3,6.8v25.4c0,2.1,0.4,3.4,1.1,4
		c0.8,0.6,2.3,0.4,4.5-0.4v4.2c-0.4,0.1-1,0.3-1.8,0.5c-0.8,0.2-1.6,0.4-2.4,0.4c-0.8,0-1.7-0.1-2.4-0.3c-0.9-0.1-1.6-0.4-2.2-0.9
		c-0.5-0.5-1-1-1.3-1.6c-0.3-0.6-0.6-1.3-0.7-2.1c-0.1-0.8-0.2-1.5-0.2-2.4c-2.3,2.5-4.9,4.4-7.8,5.8c-2.9,1.3-6.1,2-9.5,2
		c-2,0-4-0.3-5.9-0.8c-1.9-0.5-3.6-1.4-5-2.5c-1.4-1.1-2.6-2.5-3.4-4.2c-0.8-1.6-1.3-3.6-1.3-5.9c0-7.9,5.4-12.6,16.3-14L1.4,521z
		 M10.5,523.7c-2.3,1-4.6,1.6-6.9,1.9c-2.3,0.3-4.7,0.5-7,0.7c-4.1,0.3-7.4,1.2-9.7,2.8c-2.3,1.6-3.5,3.9-3.5,7.1
		c0,1.4,0.3,2.7,0.9,3.7c0.6,1,1.3,1.9,2.2,2.6c0.9,0.7,2,1.2,3.2,1.5c1.2,0.3,2.5,0.5,3.7,0.5c2.2,0,4.3-0.3,6.3-0.8
		c2-0.5,3.9-1.4,5.4-2.5c1.6-1.1,2.9-2.5,3.8-4.2c1-1.7,1.4-3.7,1.4-6.1V523.7z"/>
	<path class="st2" d="M37.5,548.2h-5.4v-46.6h5.4v8.7h0.2c1.5-3.7,3.4-6.3,5.8-7.8c2.4-1.5,5.5-2.2,9.4-2.2v5.9
		c-3.1-0.1-5.6,0.4-7.6,1.4c-2,1-3.6,2.4-4.7,4.1c-1.2,1.7-2,3.8-2.4,6.2c-0.5,2.4-0.7,4.8-0.7,7.4V548.2z"/>
	<path class="st2" d="M69,548.2h-5.4v-46.6H69v6.5c2.2-2.3,4.4-4.1,6.7-5.6c2.3-1.4,5.1-2.2,8.3-2.2c2.9,0,5.5,0.5,8,1.5
		c2.5,1,4.5,2.7,6.2,5.2c1.1,1.7,1.8,3.4,2,5.2c0.2,1.8,0.3,3.6,0.3,5.5v30.5h-5.4v-30.4c0-4.2-0.9-7.3-2.8-9.5
		c-1.9-2.1-4.9-3.1-9.3-3.1c-1.7,0-3.2,0.3-4.6,0.8c-1.4,0.5-2.6,1.2-3.7,2c-1.1,0.8-2.1,1.8-2.8,2.9c-0.8,1.1-1.4,2.2-1.8,3.4
		c-0.5,1.5-0.9,2.9-1,4.3c-0.1,1.4-0.2,2.9-0.2,4.5V548.2z"/>
</g>
<g>
	<g>
		<polygon class="st2" points="-198.6,500.5 -198.6,495.2 -253.6,472.9 -253.6,479.3 -206.5,497.9 -254.6,517.6 -254.6,524 		"/>
		<polyline class="st2" points="-216.1,537.7 -211.1,535.7 -217.8,514.3 -222.8,516.5 		"/>
		<path class="st2" d="M-298.9,537.9c6.2,4.8,12.7,8.6,19.8,11.2c7,2.7,14.3,4.1,21.8,4.1c7.4,0,14.6-1.4,21.5-4.2
			c6.9-2.8,13.4-6.5,19.5-11.1v5.1c-3.4,2.7-6.6,5.2-9.8,7.3c-3.2,2.1-6.4,3.9-9.7,5.3c-3.3,1.4-6.7,2.5-10.3,3.3
			c-3.6,0.8-7.5,1.1-11.7,1.1c-4.1,0-7.9-0.4-11.5-1.1c-3.6-0.8-7-1.9-10.3-3.3c-3.3-1.4-6.6-3.2-9.7-5.4c-3.2-2.1-6.4-4.5-9.5-7.2
			v-5.1H-298.9z"/>
	</g>
	<path class="st2" d="M-254.6,529v24.3h-6V529H-254.6z"/>
	<g>
		<g>
			<polygon class="st2" points="-287,513.1 -260.6,524 -260.6,517.6 -284.4,508 			"/>
			<polygon class="st2" points="-315.8,495.5 -315.8,500.8 -297.9,508.4 -295.2,503.4 -307.8,498.2 -260.6,479.3 -260.6,472.9 			
				"/>
		</g>
		<g>
			<path class="st1" d="M-290.6,499.7h7.4l-22.8,43h-7.4L-290.6,499.7z"/>
		</g>
	</g>
</g>
</svg>
