<?xml version="1.0" encoding="utf-8"?>
<!-- Generator: Adobe Illustrator 19.1.0, SVG Export Plug-In . SVG Version: 6.00 Build 0)  -->
<svg version="1.1" id="Calque_1" xmlns="http://www.w3.org/2000/svg" xmlns:xlink="http://www.w3.org/1999/xlink" x="0px" y="0px"
	 viewBox="-315.8 472.9 117.2 87.2" style="enable-background:new -315.8 472.9 117.2 87.2;" xml:space="preserve">
<style type="text/css">
	.st0{fill:#B8B8B8;}
	.st1{fill:#8BE1FF;}
</style>
<g>
	<g>
		<polygon class="st0" points="-198.6,500.5 -198.6,495.2 -253.6,472.9 -253.6,479.3 -206.5,497.9 -254.6,517.6 -254.6,524 		"/>
		<polyline class="st0" points="-216.1,537.7 -211.1,535.7 -217.8,514.3 -222.8,516.5 		"/>
	</g>
	<g>
		<path class="st0" d="M-298.9,537.9C-298.9,537.9-298.8,538-298.9,537.9L-298.9,537.9L-298.9,537.9z"/>
		<path class="st0" d="M-235.8,549c-6.1,2.5-12.3,3.8-18.8,4.1V529h-6v24.1c-6.3-0.3-12.5-1.7-18.5-4c-7.1-2.6-13.5-6.4-19.7-11.1v5
			c3.1,2.7,6.3,5.1,9.5,7.2c3.1,2.2,6.4,4,9.7,5.4s6.7,2.5,10.3,3.3c3.6,0.7,7.4,1.1,11.5,1.1c4.2,0,8.1-0.3,11.7-1.1
			c3.6-0.8,7-1.9,10.3-3.3s6.5-3.2,9.7-5.3c3.2-2.1,6.4-4.6,9.8-7.3v-5.1C-222.4,542.5-228.9,546.2-235.8,549z"/>
	</g>
	<g>
		<g>
			<polygon class="st0" points="-287,513.1 -260.6,524 -260.6,517.6 -284.4,508 			"/>
			<polygon class="st0" points="-315.8,495.5 -315.8,500.8 -297.9,508.4 -295.2,503.4 -307.8,498.2 -260.6,479.3 -260.6,472.9 			
				"/>
		</g>
		<g>
			<path class="st1" d="M-290.6,499.7h7.4l-22.8,43h-7.4L-290.6,499.7z"/>
		</g>
	</g>
</g>
</svg>
